<svg xmlns="http://www.w3.org/2000/svg" xml:space="preserve" style="fill-rule:evenodd;clip-rule:evenodd;stroke-linejoin:round;stroke-miterlimit:2" viewBox="0 0 204 194"><path d="M74.94 14.65a.36.36 0 0 1-.64-.22v-3.3c0-.4-.33-.73-.73-.73h-3.65a.36.36 0 0 1-.3-.57l2.4-3.36a.73.73 0 0 0-.58-1.14h-4.42a.36.36 0 0 1-.3-.58L69.84.4q.11-.15.3-.15h9.26c.3 0 .47.33.3.57l-2.4 3.36a.73.73 0 0 0 .6 1.15h3.64c.3 0 .47.34.28.58z" style="fill:#863bff;fill-rule:nonzero" transform="translate(-888.78 -3.3)scale(13.33)"/></svg>
